<?xml version="1.0" standalone="no"?><!DOCTYPE svg PUBLIC "-//W3C//DTD SVG 1.1//EN" "http://www.w3.org/Graphics/SVG/1.1/DTD/svg11.dtd"><svg t="1507791466863" class="icon" style="" viewBox="0 0 1024 1024" version="1.1" xmlns="http://www.w3.org/2000/svg" p-id="11405" xmlns:xlink="http://www.w3.org/1999/xlink" width="100" height="100"><defs><style type="text/css"></style></defs><path d="M490.626715 442.959577 523.51066 442.959577 523.51066 403.495774 487.327576 403.495774Z" fill="#d81e06" p-id="11406"></path><path d="M562.956044 531.72832 589.256036 531.72832 592.557222 479.123218 562.956044 479.123218Z" fill="#d81e06" p-id="11407"></path><path d="M497.208621 528.447601 523.51066 528.447601 523.51066 479.123218 493.908458 479.123218Z" fill="#d81e06" p-id="11408"></path><path d="M451.163935 403.495774 395.27709 403.495774 405.138692 442.959577 454.463074 442.959577Z" fill="#d81e06" p-id="11409"></path><path d="M415.000294 479.123218 428.161035 528.447601 461.02349 528.447601 457.744817 479.123218Z" fill="#d81e06" p-id="11410"></path><path d="M511.998465 67.099211c-245.705028 0-444.897719 199.193715-444.897719 444.903859 0 245.705028 199.192691 444.898743 444.897719 444.898743 245.707075 0 444.900789-199.192691 444.900789-444.898743C956.898231 266.292925 757.70554 67.099211 511.998465 67.099211zM467.606419 722.42757c-19.723204 0-32.883945-13.141298-32.883945-32.881898 0-19.723204 16.441461-32.864502 32.883945-32.864502 16.439414 0 32.881898 13.141298 32.881898 32.864502C500.488317 709.286272 487.327576 722.42757 467.606419 722.42757zM632.00056 722.42757c-19.72218 0-32.881898-13.141298-32.881898-32.881898 0-19.723204 16.438391-32.864502 32.881898-32.864502 16.440437 0 32.883945 13.141298 32.883945 32.864502C664.884504 709.286272 651.743206 722.42757 632.00056 722.42757zM740.512972 390.354476c0 6.580882-3.302209 9.862625-6.583952 13.141298l-46.023196 141.394311 0 13.141298c0 6.580882-6.579859 13.161764-13.162788 13.161764l-236.721423 0 9.859555 39.443337 226.861868 0c6.583952 0 13.162788 6.580882 13.162788 13.160741l0 13.143345c0 6.579859-6.579859 13.159718-13.162788 13.159718l-236.721423 0c-3.301186 0-6.582929-3.301186-9.861602-6.580882-6.580882 0-9.861602-3.28072-9.861602-9.861602L339.372849 341.024977l-42.7435 0c-6.580882 0-13.143345-6.570649-13.143345-13.141298l0-13.160741c0-6.579859 6.562463-13.151531 13.143345-13.151531l62.485123 0c6.561439 0 13.141298 6.571672 13.141298 13.151531l13.162788 49.330522 341.933673 0c6.579859 0 13.162788 6.560416 13.162788 13.141298L740.515019 390.354476z" fill="#d81e06" p-id="11411" class="selected"></path><path d="M635.300722 442.959577 678.046269 442.959577 681.328012 442.959577 694.468287 403.495774 638.580418 403.495774Z" fill="#d81e06" p-id="11412"></path><path d="M625.419677 528.447601 651.743206 528.447601 668.164201 479.123218 628.720863 479.123218Z" fill="#d81e06" p-id="11413"></path><path d="M562.956044 442.959577 595.837942 442.959577 599.119685 403.495774 562.956044 403.495774Z" fill="#d81e06" p-id="11414"></path></svg>